<svg xmlns="http://www.w3.org/2000/svg" version="1.1"
     xlink="http://www.w3.org/1999/xlink" xmlns:svgjs="http://svgjs.com/svgjs" 
     width="100%" height="100%"
     viewBox="14.062999725341797 14.062000274658203 71.87400817871094 71.87400817871094">
    <g fill="#ffffff">
        <path d="M37.668 55.914a6.44 6.44 0 0 0-6.418 6.418 6.41 6.41 0 0 0 4.66 6.191 6.412 6.412 0 0 0 7.215-2.828 6.313 6.313 0 0 0 .96-3.363 6.425 6.425 0 0 0-6.417-6.418z"></path>
        <path d="M62.332 47.211a9.484 9.484 0 0 1-7.797-4.008 9.482 9.482 0 0 1-1.187-8.683 15.801 15.801 0 0 0-14.566 4.261 15.799 15.799 0 0 0-4.262 14.566 9.49 9.49 0 0 1 9.914 2.22 9.49 9.49 0 0 1 2.219 9.913 15.801 15.801 0 0 0 14.566-4.262 15.799 15.799 0 0 0 4.262-14.566 9.493 9.493 0 0 1-3.149.56z"></path>
        <path d="M50 14.062a35.923 35.923 0 0 0-25.41 10.527c-6.742 6.738-10.527 15.879-10.527 25.41s3.785 18.672 10.527 25.41C31.328 82.151 40.469 85.936 50 85.936s18.672-3.785 25.41-10.527a35.922 35.922 0 0 0 10.527-25.41 35.97 35.97 0 0 0-10.539-25.398A35.973 35.973 0 0 0 50 14.062zm18.32 31.027a18.946 18.946 0 0 1-23.23 23.23 9.527 9.527 0 0 1-14.126.716 9.52 9.52 0 0 1-2.781-7.219 9.535 9.535 0 0 1 3.496-6.906 18.946 18.946 0 0 1 23.23-23.23 9.527 9.527 0 0 1 14.126-.716 9.52 9.52 0 0 1 2.781 7.219 9.535 9.535 0 0 1-3.496 6.906z"></path>
        <path d="M62.332 31.25a6.437 6.437 0 0 0-5.457 3.055 6.313 6.313 0 0 0-.96 3.363 6.425 6.425 0 0 0 6.417 6.418 6.44 6.44 0 0 0 6.418-6.418 6.425 6.425 0 0 0-6.418-6.418z"></path>
    </g>
</svg>